<svg width="24" height="24" viewBox="0 0 24 24" fill="" xmlns="http://www.w3.org/2000/svg">
<path fill-rule="evenodd" clip-rule="evenodd" d="M5.56856 3H8.77766V4.36126H5.56856C5.06736 4.36126 4.66106 4.76756 4.66106 5.26876V7.86568H3.2998V5.26876C3.2998 4.01576 4.31556 3 5.56856 3ZM5.56856 19.0387H8.77766V20.4H5.56856C4.31556 20.4 3.2998 19.3842 3.2998 18.1312V15.5343H4.66106L4.66106 18.1312C4.66106 18.6324 5.06736 19.0387 5.56856 19.0387ZM15.2221 19.0387V20.4H18.431C19.684 20.4 20.6998 19.3842 20.6998 18.1312V15.5343H19.3385V18.1312C19.3385 18.6324 18.9322 19.0387 18.431 19.0387H15.2221ZM15.2221 3V4.36126H18.431C18.9322 4.36126 19.3385 4.76756 19.3385 5.26876V7.86568H20.6998V5.26876C20.6998 4.01576 19.684 3 18.431 3H15.2221ZM6.8951 15.1031L9.7429 7.65501H11.1303L13.9781 15.1031H12.6742L11.9961 13.2359H8.87709L8.19904 15.1031H6.8951ZM10.4209 8.96938L9.24219 12.2344H11.631L10.4627 8.96938H10.4209ZM14.7053 15.1031V7.65501H15.9258V15.1031H14.7053Z" />
</svg>
