<?xml version="1.0" standalone="no"?><!DOCTYPE svg PUBLIC "-//W3C//DTD SVG 1.1//EN" "http://www.w3.org/Graphics/SVG/1.1/DTD/svg11.dtd"><svg t="1725427230732" class="icon" viewBox="0 0 1024 1024" version="1.1" xmlns="http://www.w3.org/2000/svg" p-id="5378" width="48" height="48" xmlns:xlink="http://www.w3.org/1999/xlink"><path d="M814.545455 325.818182h-93.09091a69.818182 69.818182 0 0 0-69.818181-69.818182h-46.545455v-23.272727c0-39.098182-40.96-69.818182-93.090909-69.818182s-93.090909 30.72-93.090909 69.818182v23.272727h-46.545455a69.818182 69.818182 0 0 0-69.818181 69.818182H209.454545a23.272727 23.272727 0 0 0 0 46.545454h46.545455v418.909091a93.090909 93.090909 0 0 0 93.090909 93.090909h325.818182a93.090909 93.090909 0 0 0 93.090909-93.090909V372.363636h46.545455a23.272727 23.272727 0 0 0 0-46.545454z m-349.09091-93.090909c0-9.541818 18.152727-23.272727 46.545455-23.272728s46.545455 13.730909 46.545455 23.272728v23.272727h-93.09091z m-116.363636 93.090909a23.272727 23.272727 0 0 1 23.272727-23.272727h279.272728a23.272727 23.272727 0 0 1 23.272727 23.272727z m372.363636 465.454545a46.545455 46.545455 0 0 1-46.545454 46.545455H349.090909a46.545455 46.545455 0 0 1-46.545454-46.545455V372.363636h418.90909z" p-id="5379"></path><path d="M372.363636 721.454545a23.272727 23.272727 0 0 0 23.272728-23.272727v-209.454545a23.272727 23.272727 0 0 0-46.545455 0v209.454545a23.272727 23.272727 0 0 0 23.272727 23.272727zM512 721.454545a23.272727 23.272727 0 0 0 23.272727-23.272727v-209.454545a23.272727 23.272727 0 0 0-46.545454 0v209.454545a23.272727 23.272727 0 0 0 23.272727 23.272727zM651.636364 721.454545a23.272727 23.272727 0 0 0 23.272727-23.272727v-209.454545a23.272727 23.272727 0 0 0-46.545455 0v209.454545a23.272727 23.272727 0 0 0 23.272728 23.272727z" p-id="5380"></path></svg>