<svg width="24" height="24" viewBox="0 0 24 24" fill="" xmlns="http://www.w3.org/2000/svg">
<g id="photo_fill">
<path id="Union" fill-rule="evenodd" clip-rule="evenodd" d="M5 3C3.89543 3 3 3.89543 3 5V19C3 20.1046 3.89543 21 5 21H19C20.1046 21 21 20.1046 21 19V5C21 3.89543 20.1046 3 19 3H5ZM19 4.5H5C4.72386 4.5 4.5 4.72386 4.5 5V12.9394L8.47927 8.96013L12.8993 13.0401L15.9793 9.96013L19.5 13.21V5C19.5 4.72386 19.2761 4.5 19 4.5ZM19.5 15.2514L16.0208 12.0399L14.0024 14.0584L15.5088 15.4489L14.4913 16.5511L8.52085 11.0399L4.5 15.0607V19C4.5 19.2761 4.72386 19.5 5 19.5H19C19.2761 19.5 19.5 19.2761 19.5 19V15.2514Z" />
</g>
</svg>
