<svg width="21" height="20" viewBox="0 0 21 20" fill="none" xmlns="http://www.w3.org/2000/svg">
<path d="M8.59405 16.7262V16.3623C9.0064 16.3381 9.31567 16.2896 9.52184 16.2168C9.72802 16.144 9.86143 15.9985 9.92207 15.7802C9.99484 15.5619 10.0312 15.2344 10.0312 14.7978V5.77452C10.0312 5.32578 9.99484 4.99833 9.92207 4.79215C9.86143 4.57384 9.72196 4.42831 9.50365 4.35554C9.29747 4.27064 8.99427 4.22213 8.59405 4.21V3.84616C8.89725 3.85829 9.27322 3.87042 9.72196 3.88255C10.1828 3.89467 10.6376 3.90074 11.0864 3.90074C11.5957 3.90074 12.0687 3.89467 12.5053 3.88255C12.942 3.87042 13.2937 3.85829 13.5605 3.84616V4.21C13.1603 4.22213 12.8571 4.27064 12.6509 4.35554C12.4447 4.42831 12.3052 4.57384 12.2325 4.79215C12.1597 4.99833 12.1233 5.32578 12.1233 5.77452V14.7978C12.1233 15.2344 12.1597 15.5619 12.2325 15.7802C12.3052 15.9985 12.4447 16.144 12.6509 16.2168C12.8571 16.2896 13.1603 16.3381 13.5605 16.3623V16.7262C13.2937 16.7019 12.942 16.6898 12.5053 16.6898C12.0687 16.6776 11.5957 16.6716 11.0864 16.6716C10.6376 16.6716 10.1828 16.6776 9.72196 16.6898C9.27322 16.6898 8.89725 16.7019 8.59405 16.7262ZM0.953369 16.7262V16.3623C1.36572 16.3381 1.67499 16.2896 1.88117 16.2168C2.08734 16.144 2.22075 15.9985 2.28139 15.7802C2.35416 15.5619 2.39054 15.2344 2.39054 14.7978V5.77452C2.39054 5.32578 2.35416 4.99833 2.28139 4.79215C2.22075 4.57384 2.08128 4.42831 1.86297 4.35554C1.6568 4.27064 1.3536 4.22213 0.953369 4.21V3.84616C1.23231 3.85829 1.59009 3.87042 2.0267 3.88255C2.47544 3.89467 2.9545 3.90074 3.46388 3.90074C3.92474 3.90074 4.37348 3.89467 4.81009 3.88255C5.25883 3.87042 5.62874 3.85829 5.91981 3.84616V4.21C5.51958 4.22213 5.21638 4.27064 5.01021 4.35554C4.80403 4.42831 4.66456 4.57384 4.59179 4.79215C4.51902 4.99833 4.48263 5.32578 4.48263 5.77452V14.7978C4.48263 15.2344 4.51902 15.5619 4.59179 15.7802C4.66456 15.9985 4.80403 16.144 5.01021 16.2168C5.21638 16.2896 5.51958 16.3381 5.91981 16.3623V16.7262C5.62874 16.7019 5.25883 16.6898 4.81009 16.6898C4.37348 16.6776 3.92474 16.6716 3.46388 16.6716C2.9545 16.6716 2.47544 16.6776 2.0267 16.6898C1.59009 16.6898 1.23231 16.7019 0.953369 16.7262ZM3.66399 10.4317V10.0679H10.8499V10.4317H3.66399Z" fill="#222529"/>
<path d="M19.0633 7.13893V14.8888C19.0633 15.4588 19.1846 15.8469 19.4272 16.0531C19.6697 16.2471 20.0821 16.3441 20.6642 16.3441V16.7262C20.4217 16.714 20.0639 16.7019 19.5909 16.6898C19.13 16.6655 18.651 16.6534 18.1537 16.6534C17.5716 16.6534 17.0137 16.6655 16.48 16.6898C15.9464 16.7019 15.534 16.714 15.243 16.7262V16.3441C15.8251 16.3441 16.2799 16.2471 16.6074 16.0531C16.9348 15.8469 17.0986 15.4467 17.0986 14.8524V10.4317C17.0986 9.84955 17.0379 9.419 16.9166 9.14006C16.8075 8.86111 16.6013 8.67919 16.2981 8.5943C16.007 8.5094 15.6068 8.46695 15.0974 8.46695V8.06673C16.0192 8.04247 16.7893 7.96364 17.4078 7.83023C18.0264 7.69682 18.5782 7.46639 19.0633 7.13893Z" fill="#222529"/>
</svg>
