<svg width="20" height="20" viewBox="0 0 20 20" fill="none" xmlns="http://www.w3.org/2000/svg">
<path d="M7.62988 16.8338V16.5321C7.9718 16.512 8.22824 16.4718 8.3992 16.4114C8.57016 16.3511 8.68078 16.2304 8.73106 16.0494C8.7914 15.8684 8.82157 15.5969 8.82157 15.2348V7.75282C8.82157 7.38073 8.7914 7.1092 8.73106 6.93824C8.68078 6.75723 8.56513 6.63655 8.38412 6.57621C8.21316 6.50582 7.96174 6.46559 7.62988 6.45553V6.15384C7.88129 6.1639 8.19304 6.17395 8.56513 6.18401C8.94728 6.19406 9.32439 6.19909 9.69648 6.19909C10.1189 6.19909 10.5111 6.19406 10.8731 6.18401C11.2351 6.17395 11.5268 6.1639 11.748 6.15384V6.45553C11.4161 6.46559 11.1647 6.50582 10.9938 6.57621C10.8228 6.63655 10.7072 6.75723 10.6468 6.93824C10.5865 7.1092 10.5563 7.38073 10.5563 7.75282V15.2348C10.5563 15.5969 10.5865 15.8684 10.6468 16.0494C10.7072 16.2304 10.8228 16.3511 10.9938 16.4114C11.1647 16.4718 11.4161 16.512 11.748 16.5321V16.8338C11.5268 16.8137 11.2351 16.8036 10.8731 16.8036C10.5111 16.7936 10.1189 16.7885 9.69648 16.7885C9.32439 16.7885 8.94728 16.7936 8.56513 16.8036C8.19304 16.8036 7.88129 16.8137 7.62988 16.8338ZM1.29431 16.8338V16.5321C1.63623 16.512 1.89267 16.4718 2.06363 16.4114C2.23459 16.3511 2.34521 16.2304 2.39549 16.0494C2.45583 15.8684 2.486 15.5969 2.486 15.2348V7.75282C2.486 7.38073 2.45583 7.1092 2.39549 6.93824C2.34521 6.75723 2.22956 6.63655 2.04855 6.57621C1.87759 6.50582 1.62617 6.46559 1.29431 6.45553V6.15384C1.52561 6.1639 1.82228 6.17395 2.18431 6.18401C2.5564 6.19406 2.95363 6.19909 3.376 6.19909C3.75814 6.19909 4.13023 6.19406 4.49227 6.18401C4.86435 6.17395 5.17108 6.1639 5.41243 6.15384V6.45553C5.08057 6.46559 4.82916 6.50582 4.6582 6.57621C4.48724 6.63655 4.37159 6.75723 4.31125 6.93824C4.25091 7.1092 4.22074 7.38073 4.22074 7.75282V15.2348C4.22074 15.5969 4.25091 15.8684 4.31125 16.0494C4.37159 16.2304 4.48724 16.3511 4.6582 16.4114C4.82916 16.4718 5.08057 16.512 5.41243 16.5321V16.8338C5.17108 16.8137 4.86435 16.8036 4.49227 16.8036C4.13023 16.7936 3.75814 16.7885 3.376 16.7885C2.95363 16.7885 2.5564 16.7936 2.18431 16.8036C1.82228 16.8036 1.52561 16.8137 1.29431 16.8338ZM3.54193 11.6145V11.3128H9.50038V11.6145H3.54193Z" fill="#222529"/>
<path d="M16.1751 8.83891C16.8992 8.83891 17.4724 9.00485 17.8948 9.33671C18.3171 9.66857 18.5283 10.1412 18.5283 10.7547C18.5283 11.1469 18.4328 11.519 18.2417 11.8709C18.0507 12.2129 17.7992 12.5397 17.4875 12.8514C17.1858 13.1632 16.859 13.4649 16.507 13.7565C16.155 14.0482 15.8131 14.3348 15.4812 14.6164C15.1594 14.8879 14.8829 15.1695 14.6516 15.4611H17.7892C18.2015 15.4611 18.463 15.4058 18.5736 15.2952C18.6842 15.1845 18.7596 14.9935 18.7999 14.7219H19.0714C19.0714 15.3052 19.0764 15.7527 19.0865 16.0645C19.0965 16.3762 19.1116 16.6578 19.1317 16.9092C19.0412 16.8891 18.8753 16.874 18.6339 16.864C18.3926 16.8539 18.116 16.8439 17.8043 16.8338C17.4925 16.8338 17.1858 16.8338 16.8841 16.8338H13.0677V16.5623C13.3593 16.2405 13.7163 15.8935 14.1387 15.5214C14.5611 15.1493 14.9683 14.7421 15.3605 14.2996C15.7628 13.8571 16.0947 13.3744 16.3561 12.8514C16.6277 12.3184 16.7634 11.7452 16.7634 11.1318C16.7634 10.5686 16.6327 10.1613 16.3712 9.90993C16.1198 9.65851 15.7578 9.53281 15.2851 9.53281C14.8728 9.53281 14.4957 9.64846 14.1538 9.87976C13.8219 10.101 13.5252 10.4329 13.2638 10.8753L13.0224 10.7245C13.1934 10.4027 13.4146 10.101 13.6861 9.81942C13.9577 9.52778 14.2946 9.29145 14.6968 9.11044C15.1091 8.92942 15.6019 8.83891 16.1751 8.83891Z" fill="#222529"/>
</svg>
