<svg width="24" height="24" viewBox="0 0 24 24" fill="" xmlns="http://www.w3.org/2000/svg">
<g id="tool_fill">
<g id="Union">
<path d="M11.25 12.75H8V11.25H11.25V8H12.75V11.25H16V12.75H12.75V16H11.25V12.75Z" />
<path fill-rule="evenodd" clip-rule="evenodd" d="M12 2C6.47715 2 2 6.47715 2 12C2 17.5228 6.47715 22 12 22C17.5228 22 22 17.5228 22 12C22 6.47715 17.5228 2 12 2ZM3.5 12C3.5 16.6944 7.30558 20.5 12 20.5C16.6944 20.5 20.5 16.6944 20.5 12C20.5 7.30558 16.6944 3.5 12 3.5C7.30558 3.5 3.5 7.30558 3.5 12Z" />
</g>
</g>
</svg>
