<?xml version="1.0" standalone="no"?><!DOCTYPE svg PUBLIC "-//W3C//DTD SVG 1.1//EN" "http://www.w3.org/Graphics/SVG/1.1/DTD/svg11.dtd"><svg t="1725427201878" class="icon" viewBox="0 0 1024 1024" version="1.1" xmlns="http://www.w3.org/2000/svg" p-id="4292" width="48" height="48" xmlns:xlink="http://www.w3.org/1999/xlink"><path d="M640 160 256 160C220.64 160 192 188.64 192 224L192 672 256 672 256 224 640 224 640 160 640 160ZM736 288 384 288C348.64 288 320 316.672 320 352L320 800C320 835.328 348.64 864 384 864L736 864C771.328 864 800 835.328 800 800L800 352C800 316.672 771.328 288 736 288L736 288ZM384 352 736 352 736 800 384 800 384 352Z" p-id="4293"></path></svg>