<?xml version="1.0" standalone="no"?><!DOCTYPE svg PUBLIC "-//W3C//DTD SVG 1.1//EN" "http://www.w3.org/Graphics/SVG/1.1/DTD/svg11.dtd"><svg t="1721390375569" class="icon" viewBox="0 0 1024 1024" version="1.1" xmlns="http://www.w3.org/2000/svg" p-id="6225" width="48" height="48" xmlns:xlink="http://www.w3.org/1999/xlink"><path d="M768 1024H523.2v-81.6c0-62.4-51.2-113.6-113.6-113.6-62.4 0-113.6 51.2-113.6 113.6V1024H51.2c-14.4 0-27.2-4.8-36.8-14.4V1008c-8-11.2-12.8-22.4-12.8-35.2V752h86.4c60.8-1.6 110.4-52.8 110.4-113.6s-48-112-110.4-113.6H3.2V224c0-14.4 4.8-27.2 14.4-36.8H16c11.2-8 22.4-12.8 35.2-12.8h225.6V147.2c1.6-40 17.6-76.8 44.8-104C350.4 16 387.2 1.6 425.6 1.6c40 1.6 76.8 17.6 104 44.8 27.2 28.8 41.6 65.6 41.6 104v22.4h198.4c14.4 0 27.2 4.8 36.8 14.4l1.6 1.6c8 11.2 12.8 22.4 12.8 35.2v256h52.8c41.6 0 81.6 17.6 110.4 46.4 27.2 28.8 41.6 67.2 40 107.2 0 84.8-67.2 152-152 152h-52.8v188.8c0 14.4-4.8 27.2-14.4 36.8l-1.6 1.6c-11.2 6.4-22.4 11.2-35.2 11.2z m-212.8-32H768c4.8 0 9.6-1.6 14.4-4.8 3.2-3.2 4.8-8 4.8-12.8V752h84.8c67.2 0 120-52.8 120-120 1.6-32-9.6-60.8-32-83.2-22.4-24-54.4-36.8-88-36.8h-84.8V224c0-4.8-1.6-9.6-4.8-14.4-3.2-3.2-8-4.8-12.8-4.8H539.2V152c0-30.4-11.2-59.2-32-81.6-20.8-22.4-49.6-35.2-81.6-35.2-30.4 0-59.2 11.2-81.6 32-22.4 20.8-35.2 49.6-35.2 81.6V208H51.2c-4.8 0-9.6 1.6-14.4 4.8-3.2 3.2-4.8 8-4.8 12.8v267.2h54.4c80 3.2 142.4 67.2 142.4 145.6 0 78.4-64 144-140.8 145.6H33.6v188.8c0 4.8 1.6 9.6 4.8 14.4 3.2 3.2 8 4.8 12.8 4.8h212.8v-49.6c0-80 65.6-145.6 145.6-145.6s145.6 65.6 145.6 145.6V992z" p-id="6226"></path></svg>