<?xml version="1.0" standalone="no"?><!DOCTYPE svg PUBLIC "-//W3C//DTD SVG 1.1//EN" "http://www.w3.org/Graphics/SVG/1.1/DTD/svg11.dtd"><svg t="1725197785815" class="icon" viewBox="0 0 1024 1024" version="1.1" xmlns="http://www.w3.org/2000/svg" p-id="4287" width="48" height="48" xmlns:xlink="http://www.w3.org/1999/xlink"><path d="M362.112 102.016C426.048 72.448 467.392 53.376 512 53.376c44.608 0 85.952 19.072 149.888 48.64l82.048 37.952c53.824 24.896 97.536 45.12 127.552 64.64 29.952 19.52 56.512 44.992 56.512 83.392s-26.56 63.872-56.512 83.392c-30.016 19.584-73.728 39.744-127.552 64.64l-82.048 37.952c-63.936 29.568-105.28 48.64-149.888 48.64-44.608 0-85.952-19.072-149.888-48.64l-82.048-37.952c-53.888-24.896-97.6-45.056-127.552-64.64C122.56 351.872 96 326.4 96 288s26.56-63.872 56.512-83.392c29.952-19.52 73.664-39.744 127.552-64.64l82.048-37.952zM512 117.376c-28.8 0-56.64 12.032-129.792 45.888l-72.768 33.6c-56.96 26.368-96.384 44.672-121.984 61.312-25.984 17.024-27.456 25.728-27.456 29.824s1.472 12.8 27.52 29.824c25.6 16.64 64.96 34.944 121.92 61.312l72.768 33.6c73.152 33.856 100.992 45.952 129.792 45.952 28.8 0 56.64-12.16 129.792-45.952l72.768-33.6c56.96-26.368 96.384-44.672 121.984-61.312 25.984-17.024 27.456-25.728 27.456-29.824s-1.472-12.8-27.52-29.824c-25.6-16.64-64.96-34.944-121.92-61.312l-72.768-33.6C568.64 129.408 540.8 117.312 512 117.312z" fill="#333333" p-id="4288"></path><path d="M155.584 447.36a32 32 0 0 1 7.552 44.672 13.632 13.632 0 0 0-3.136 8.512c0 3.52 1.152 12.032 27.328 28.8 25.6 16.512 64.96 34.56 121.984 60.544l72.704 33.088c73.152 33.344 101.12 45.312 129.984 45.312 28.928 0 56.832-11.968 129.92-45.312l72.768-33.088c56.96-25.984 96.448-44.032 121.984-60.48 26.176-16.832 27.328-25.344 27.328-28.864a13.696 13.696 0 0 0-3.136-8.512 32 32 0 0 1 52.16-37.12c9.472 13.376 14.976 28.608 14.976 45.632 0 38.336-26.88 63.488-56.704 82.688-29.952 19.2-73.664 39.168-127.552 63.68l-81.92 37.376c-64 29.184-105.28 48-149.824 48-44.544 0-85.76-18.816-149.76-48l-82.048-37.376c-53.824-24.512-97.536-44.416-127.488-63.68-29.824-19.2-56.704-44.352-56.704-82.688 0-17.024 5.504-32.256 14.976-45.632a32 32 0 0 1 44.608-7.488z" fill="#333333" p-id="4289"></path><path d="M174.528 719.04a32 32 0 1 0-39.872-50.048c-21.568 17.216-38.656 39.488-38.656 69.888 0 38.4 26.88 63.552 56.704 82.752 29.952 19.2 73.664 39.104 127.488 63.68l81.984 37.312c64 29.248 105.28 48 149.824 48 44.544 0 85.76-18.752 149.76-48l81.984-37.312c53.888-24.576 97.6-44.48 127.552-63.68 29.824-19.2 56.704-44.416 56.704-82.752 0-30.4-17.088-52.672-38.656-69.888a32 32 0 0 0-39.872 50.048c13.824 11.072 14.528 16.896 14.528 19.84 0 3.584-1.152 12.096-27.328 28.864-25.6 16.448-64.96 34.56-121.984 60.48l-72.704 33.152c-73.152 33.28-101.12 45.312-129.984 45.312-28.928 0-56.832-12.032-129.92-45.312l-72.768-33.152c-56.96-25.984-96.448-44.032-121.984-60.48-26.176-16.768-27.328-25.344-27.328-28.864 0-2.944 0.64-8.768 14.528-19.84z" fill="#333333" p-id="4290"></path></svg>