<?xml version="1.0" standalone="no"?><!DOCTYPE svg PUBLIC "-//W3C//DTD SVG 1.1//EN" "http://www.w3.org/Graphics/SVG/1.1/DTD/svg11.dtd"><svg t="1721390431677" class="icon" viewBox="0 0 1024 1024" version="1.1" xmlns="http://www.w3.org/2000/svg" p-id="8473" width="48" height="48" xmlns:xlink="http://www.w3.org/1999/xlink"><path d="M199.296 479.36L151.04 512 512 755.328 873.024 512l-48.32-32.64L512 690.176 199.296 479.424z m700.864-50.816l46.08 31.104L1024 512l-123.84 83.456L1024 678.912 512 1024l-512-345.088 123.84-83.456L0 512l79.104-53.312 44.736-30.144L0 345.088 512 0l512 345.088-123.84 83.456z m-75.52 217.792L512 857.088l-312.704-210.752-48.32 32.64L512 922.24l361.024-243.328-48.32-32.576zM512 101.696L150.976 345.152 512 588.416l361.024-243.328L512 101.76z" p-id="8474"></path></svg>