<svg width="24" height="24" viewBox="0 0 24 24" fill="" xmlns="http://www.w3.org/2000/svg">
<g id="sticker_fill">
<g id="Union">
<path fill-rule="evenodd" clip-rule="evenodd" d="M13.2704 2.84493C13.8904 2.18357 14.9999 2.62233 14.9999 3.52887V15.0001C14.9999 15.5524 14.5522 16.0001 13.9999 16.0001H3.30813C2.4327 16.0001 1.97985 14.9548 2.5786 14.3161L13.2704 2.84493ZM4.46225 14.5001L13.4999 4.79326V14.5001H4.46225Z" />
<path d="M15.5001 22.0001C12.0785 22.0001 9.27434 19.3563 9.01904 16.0001H10.5248C10.7756 18.5268 12.9074 20.5001 15.5001 20.5001C18.2615 20.5001 20.5001 18.2615 20.5001 15.5001C20.5001 12.7387 18.2615 10.5001 15.5001 10.5001C15.3313 10.5001 15.1644 10.5085 14.9999 10.5248V9.01908C15.165 9.00652 15.3318 9.00012 15.5001 9.00012C19.09 9.00012 22.0001 11.9103 22.0001 15.5001C22.0001 19.09 19.09 22.0001 15.5001 22.0001Z" />
</g>
</g>
</svg>
