<?xml version="1.0" standalone="no"?><!DOCTYPE svg PUBLIC "-//W3C//DTD SVG 1.1//EN" "http://www.w3.org/Graphics/SVG/1.1/DTD/svg11.dtd"><svg t="1721537951504" class="icon" viewBox="0 0 1024 1024" version="1.1" xmlns="http://www.w3.org/2000/svg" p-id="4259" width="48" height="48" xmlns:xlink="http://www.w3.org/1999/xlink"><path d="M909.941268 908.539338c-7.472182-111.620194-62.636572-215.4694-151.337777-284.933471l-5.332449-3.682879-0.048095 0.071631c-5.0449-3.084245-10.79588-4.734838-16.714683-4.734838-20.337187 0-32.472576 9.804297-32.472576 26.231431 0 9.564843 4.423753 18.555611 11.847839 24.653493l-0.083911 0.143263 4.710278 3.371794c74.389244 53.1802 116.27112 133.834124 124.472919 239.763712l0.088004 1.155313c-0.073678 0.890276-0.12075 1.787716-0.12075 2.696412 0 17.900695 14.511505 32.413224 32.413224 32.413224 17.300015 0 31.431873-13.554714 32.361035-30.622438l0.644683 0L909.941268 908.539338z" fill="#272636" p-id="4260"></path><path d="M805.554826 365.66005c0-161.142074-132.674719-292.25011-295.765167-292.25011S214.023468 204.517977 214.023468 365.66005c0 86.823438 38.390355 167.813007 105.678878 223.647663-120.791064 64.466244-200.967104 187.445136-210.041784 323.216379l-0.373507 5.659907c-0.007163 0.11768-0.017396 0.233314-0.023536 0.352017l-0.033769 0.515746 0.020466 0c-0.008186 0.275269-0.020466 0.550539-0.020466 0.827855 0 15.176654 12.30321 27.480888 27.480888 27.480888 15.176654 0 27.480888-12.30321 27.480888-27.480888 0-0.277316-0.01228-0.552585-0.020466-0.827855l0.571005 0 0.430812-5.643534c9.958816-129.028679 91.737354-242.011916 208.630644-288.568255 34.898835 16.21224 88.175225 33.093722 135.962601 33.093722 44.273343 0 87.266529-9.756201 128.203894-29.220508l29.984918-17.407462 24.485671-16.068977C764.318656 539.284413 805.554826 455.592292 805.554826 365.66005zM509.788635 599.087451c-130.319068 0-236.332567-104.734366-236.332567-233.450936 0-128.694057 106.013499-233.403864 236.332567-233.403864 130.331347 0 236.357126 104.709807 236.357126 233.403864C746.145761 494.354108 640.119983 599.087451 509.788635 599.087451z" fill="#272636" p-id="4261"></path></svg>