<?xml version="1.0" standalone="no"?><!DOCTYPE svg PUBLIC "-//W3C//DTD SVG 1.1//EN" "http://www.w3.org/Graphics/SVG/1.1/DTD/svg11.dtd"><svg t="1725328326598" class="icon" viewBox="0 0 1024 1024" version="1.1" xmlns="http://www.w3.org/2000/svg" p-id="6208" id="mx_n_1725328326600" width="48" height="48" xmlns:xlink="http://www.w3.org/1999/xlink"><path d="M932.1875 513.59375001c0-230.4375-187.5-417.9375-417.9375-417.93750002S96.3125 283.15624999 96.3125 513.59375001c0 130.40625001 59.25 250.96875001 162.46875001 330.84374999 1.6875 1.3125 3.5625 2.4375 5.24999998 3.75 1.3125 1.125 2.8125 2.15625001 4.3125 3.09375001 71.8125 52.40625001 156.46875001 80.34375001 245.90625001 80.34374999 90.75 0 174.5625-29.34375001 243.09375001-78.65625001 4.03125001-1.875 7.5-4.5 10.31249998-7.68749998 99.75-76.5 164.53125001-196.5 164.53125001-331.68750002z m-771.65625001 0c0-195 158.625-353.625 353.625-353.62500002s353.625 158.625 353.625 353.62500002c0 100.125-42 190.5-109.125 254.90624999-26.25-58.96875001-72.46875001-105.5625-129.46874999-132.5625 47.15625001-35.15625001 77.8125-91.21875001 77.8125-154.5 0-106.40625001-86.53125001-192.9375-192.9375-192.9375S321.3125 375.125 321.3125 481.53124999c0 63.1875 30.75 119.25 77.8125 154.50000002-57.09375001 27-103.40625001 73.6875-129.65625001 132.84374999-69.5625-66.5625-108.9375-157.59375001-108.93749998-255.28125001z m225.09375001-32.06250002c0-70.875 57.65625001-128.625 128.625-128.62499998s128.625 57.65625001 128.625 128.625S585.125 610.0625 514.15625001 610.0625s-128.53125001-57.65625001-128.53125001-128.53125001z m-63.5625 329.15625001c28.21875001-81.1875 104.34375001-136.21875001 192.09374999-136.21875001 87.5625 0 163.59375001 54.9375 192 135.84375001-55.3125 35.90625001-121.21875001 57.09375001-192 57.09375001-69.09375001-0.09375001-134.90625001-19.59375001-192.09374999-56.71875001z" p-id="6209"></path></svg>