<svg width="20" height="20" viewBox="0 0 20 20" fill="none" xmlns="http://www.w3.org/2000/svg">
<path d="M6.61463 6.15384L10.2865 15.6044C10.427 15.9756 10.5875 16.2264 10.7681 16.3568C10.9587 16.4873 11.1342 16.5575 11.2948 16.5675V16.8685C11.054 16.8484 10.7681 16.8384 10.437 16.8384C10.116 16.8284 9.7899 16.8234 9.45883 16.8234C9.03746 16.8234 8.6462 16.8284 8.28503 16.8384C7.92386 16.8384 7.63292 16.8484 7.41221 16.8685V16.5675C7.92386 16.5475 8.2449 16.4622 8.37532 16.3117C8.51578 16.1512 8.48568 15.8151 8.28503 15.3034L5.57627 7.98978L5.81705 7.7189L3.31897 14.25C3.13838 14.7015 3.02802 15.0777 2.98789 15.3787C2.9578 15.6797 2.98288 15.9154 3.06314 16.086C3.15343 16.2565 3.30392 16.3769 3.5146 16.4471C3.72528 16.5174 3.98612 16.5575 4.29713 16.5675V16.8685C3.99616 16.8484 3.69017 16.8384 3.37916 16.8384C3.07819 16.8284 2.79226 16.8234 2.52139 16.8234C2.28061 16.8234 2.06491 16.8284 1.87429 16.8384C1.69371 16.8384 1.52817 16.8484 1.37769 16.8685V16.5675C1.58837 16.5174 1.79905 16.392 2.00973 16.1913C2.22041 15.9907 2.42106 15.6496 2.61168 15.168L6.10297 6.15384C6.18323 6.15384 6.26851 6.15384 6.3588 6.15384C6.44909 6.15384 6.53437 6.15384 6.61463 6.15384ZM8.19474 12.5345V12.8355H3.71023L3.86072 12.5345H8.19474Z" fill="#222529"/>
<path d="M13.7116 16.9738C13.2902 16.9738 12.9291 16.8936 12.6281 16.7331C12.3271 16.5725 12.1014 16.3518 11.9509 16.0709C11.8004 15.79 11.7252 15.469 11.7252 15.1078C11.7252 14.6664 11.8255 14.3102 12.0262 14.0393C12.2268 13.7584 12.4826 13.5327 12.7936 13.3622C13.1147 13.1916 13.4508 13.0512 13.8019 12.9408C14.1631 12.8204 14.4992 12.71 14.8102 12.6097C15.1312 12.4994 15.392 12.374 15.5927 12.2335C15.8034 12.0931 15.9087 11.9075 15.9087 11.6767V10.6534C15.9087 10.2922 15.8485 10.0063 15.7281 9.79562C15.6178 9.57491 15.4623 9.4194 15.2616 9.32911C15.071 9.23882 14.8403 9.19367 14.5694 9.19367C14.3386 9.19367 14.0928 9.22879 13.832 9.29901C13.5712 9.35921 13.3655 9.48461 13.215 9.67523C13.4357 9.73542 13.6163 9.85581 13.7568 10.0364C13.9072 10.207 13.9825 10.4226 13.9825 10.6835C13.9825 10.9644 13.8872 11.1851 13.6966 11.3456C13.516 11.5062 13.2852 11.5864 13.0043 11.5864C12.6933 11.5864 12.4626 11.4911 12.3121 11.3005C12.1616 11.0998 12.0863 10.8691 12.0863 10.6082C12.0863 10.3374 12.1516 10.1167 12.282 9.94611C12.4224 9.77555 12.603 9.61504 12.8237 9.46455C13.0645 9.30403 13.3705 9.16859 13.7417 9.05823C14.1229 8.94788 14.5443 8.8927 15.0058 8.8927C15.4372 8.8927 15.8084 8.94286 16.1194 9.04319C16.4404 9.13348 16.7063 9.28396 16.917 9.49465C17.1678 9.72539 17.3333 10.0163 17.4136 10.3675C17.4938 10.7086 17.534 11.1249 17.534 11.6165V15.7699C17.534 16.0208 17.5641 16.2013 17.6243 16.3117C17.6945 16.412 17.8048 16.4622 17.9553 16.4622C18.0557 16.4622 18.151 16.4371 18.2413 16.3869C18.3416 16.3368 18.457 16.2615 18.5874 16.1612L18.7379 16.417C18.5272 16.5876 18.3115 16.723 18.0908 16.8234C17.8801 16.9237 17.6092 16.9738 17.2781 16.9738C16.9571 16.9738 16.6963 16.9237 16.4956 16.8234C16.295 16.723 16.1445 16.5776 16.0442 16.3869C15.9539 16.1963 15.9087 15.9606 15.9087 15.6797C15.6479 16.101 15.3369 16.4221 14.9757 16.6428C14.6145 16.8635 14.1932 16.9738 13.7116 16.9738ZM14.4339 16.2515C14.7149 16.2515 14.9757 16.1712 15.2165 16.0107C15.4673 15.8502 15.698 15.6094 15.9087 15.2884V12.2937C15.7984 12.4542 15.6378 12.5947 15.4272 12.7151C15.2165 12.8254 14.9907 12.9408 14.75 13.0612C14.5092 13.1816 14.2784 13.322 14.0577 13.4825C13.847 13.633 13.6715 13.8287 13.531 14.0694C13.3906 14.3102 13.3203 14.6162 13.3203 14.9874C13.3203 15.3787 13.4207 15.6897 13.6213 15.9204C13.822 16.1411 14.0928 16.2515 14.4339 16.2515Z" fill="#222529"/>
</svg>
