<?xml version="1.0" standalone="no"?><!DOCTYPE svg PUBLIC "-//W3C//DTD SVG 1.1//EN" "http://www.w3.org/Graphics/SVG/1.1/DTD/svg11.dtd"><svg t="1685257637523" class="icon" viewBox="0 0 1024 1024" version="1.1" xmlns="http://www.w3.org/2000/svg" p-id="1862" xmlns:xlink="http://www.w3.org/1999/xlink" width="128" height="128"><path d="M568.778656 638.44176H925.328211c19.691481 0 35.655058-15.648398 35.655058-34.952046V463.681528c0-19.303648-15.963577-34.952047-35.655058-34.952047H568.778656c-19.691481 0-35.655058 15.648398-35.655058 34.952047v20.009729H390.236284l-101.217263-99.221815a35.839253 35.839253 0 0 0 1.026376-8.510838v-97.240695a111.448278 111.448278 0 0 0 76.550467-105.84056c0-61.550845-49.89641-111.447255-111.447255-111.447255-61.550845 0-111.447255 49.89641-111.447255 111.447255 0 48.523133 31.014364 89.796142 74.29817 105.096617v95.467305L79.949378 508.769422c-6.749728 6.562463-10.546194 15.495926-10.546193 24.816199 0 9.31925 3.796466 18.252713 10.546193 24.816199l138.050146 135.328151v149.070131c0 19.832697 16.128329 35.910884 36.023448 35.910884h279.100626v39.346123c0 19.303648 15.963577 34.952047 35.655058 34.952047H925.328211c19.691481 0 35.655058-15.648398 35.655058-34.952047V778.249947c0-19.303648-15.963577-34.952047-35.655058-34.952047H568.778656c-19.691481 0-35.655058 15.648398-35.655058 34.952047v28.640293H290.046421V681.694867l125.772518-123.293047a35.365462 35.365462 0 0 0 2.647293-2.887771h114.657366v47.975665c0 19.303648 15.963577 34.952047 35.655058 34.952046z m320.894498 174.760233v69.904093H604.433714v-15.672958c6.085602-6.430456 9.82374-15.093766 9.823739-24.632003s-3.738138-18.201547-9.823739-24.632004v-4.966105h285.23944zM247.884159 624.11138L155.537937 533.585621l92.346222-90.52576 92.346221 90.52576-92.346221 90.525759z m641.788995-55.573713H604.433714v-24.302498c6.085602-6.430456 9.82374-15.093766 9.823739-24.632004a35.667338 35.667338 0 0 0-6.78759-20.969591h282.203291v69.904093z" fill="#020202" p-id="1863"></path></svg>