<?xml version="1.0" standalone="no"?><!DOCTYPE svg PUBLIC "-//W3C//DTD SVG 1.1//EN" "http://www.w3.org/Graphics/SVG/1.1/DTD/svg11.dtd"><svg t="1685276839343" class="icon" viewBox="0 0 1024 1024" version="1.1" xmlns="http://www.w3.org/2000/svg" p-id="8952" xmlns:xlink="http://www.w3.org/1999/xlink" width="128" height="128"><path d="M310.1 863.9c-124 0-218-4.2-219.3-4.3-12.7-0.6-22.5-11.3-21.9-24 0.6-12.7 11.5-22.6 24-21.9 193.3 8.8 714.8 12.7 805.6-74.1 8.5-8.1 9.5-14.1 9.5-18 0-15-16.7-48.1-128.7-101.8C696.2 580.2 586.1 541 479.6 503 241.6 418 107 366.7 107 300.4c0-43.3 43.6-96.5 383.5-123.4 180-14.3 362.3-14.4 364.1-14.4 12.7 0 22.9 10.3 22.9 22.9s-10.3 22.9-22.9 22.9c-1.8 0-182.5 0.2-360.7 14.3-337.1 26.8-341 77.2-341 77.7 0 0.9 1.1 21.4 96 64.9 65.3 29.9 153.2 61.3 246.2 94.5 277.1 98.9 458.8 170.6 458.8 262.1 0 18.9-8 36.1-23.7 51.1-53.8 51.4-207.7 80.4-470.5 88.7-52 1.6-102.9 2.2-149.6 2.2z" fill="#7D7D7D" p-id="8953"></path></svg>