<?xml version="1.0" standalone="no"?><!DOCTYPE svg PUBLIC "-//W3C//DTD SVG 1.1//EN" "http://www.w3.org/Graphics/SVG/1.1/DTD/svg11.dtd"><svg t="1685277055004" class="icon" viewBox="0 0 1024 1024" version="1.1" xmlns="http://www.w3.org/2000/svg" p-id="31167" xmlns:xlink="http://www.w3.org/1999/xlink" width="128" height="128"><path d="M854.1 744.9c1.4 0 1.4-14.9 0-14.9l-565.7-2.6c-1.4 0-2.6 3.3-2.6 7.4 0 4.1 1.2 7.5 2.6 7.5l565.7 2.6z" p-id="31168"></path><path d="M839.7 739.2c0 1.4 14.9 1.3 14.9-0.1l-0.8-565.8c0-1.4-3.3-2.6-7.5-2.5-4.1 0-7.4 1.2-7.4 2.6l0.8 565.8z" p-id="31169"></path><path d="M314.6 735l32.2-151.7-1.8-3.4-86.1 98c-30 18.8-60 37.7-90 56.5 30 19.1 60 38.2 89.9 57.4l86 98.8 1.8-2.6-32-153z" p-id="31170"></path></svg>